# xmcd
#
# Track frame offsets:
#	150
#	31728
#	67450
#	90468
#	108810
#	141430
#	160602
#	177650
#	203305
#	230625
#	247668
#	276842
#	301681
#
# Disc length: 4385 seconds
#
# Revision: 1
# Processed by: cddbd v1.5.2PL0 Copyright (c) Steve Scherf et al.
# Submitted via: audiograbber 1.83.01
#
DISCID=a5111f0d
DTITLE=Various Artist - Boston Blues Festival Volume ll
DYEAR=2007
DGENRE=Blues
TTITLE0=Chick Willis - Rib Shack
TTITLE1=Duke Robillard - My Tears
TTITLE2=Darrell Nulisch - Worried
TTITLE3=David Honeyboy Edwards - That's Alright
TTITLE4=Sugar Ray and the Bluetones - Lonesome Cabin
TTITLE5=Lazy Lester - Sad Sad City
TTITLE6=Hubert Sumlin - Some Summer Days
TTITLE7=The Love Dogs - Big and Hot
TTITLE8=Louisiana Red - Cotton Pickin' Blues
TTITLE9=Dennis Brennan - Government Johnny McKee
TTITLE10=The Dwight Ritcher Band - Clocks Gone Crazy
TTITLE11=Lydia Warren - Don't Need No
TTITLE12=Hot Tamale Brass Band - Do Whatcha Wanna
EXTD=
EXTT0=
EXTT1=
EXTT2=
EXTT3=
EXTT4=
EXTT5=
EXTT6=
EXTT7=
EXTT8=
EXTT9=
EXTT10=
EXTT11=
EXTT12=
PLAYORDER=
